<svg width="512" height="160" viewBox="0 0 512 160" fill="none" xmlns="http://www.w3.org/2000/svg">
<path d="M331.122 146.88C302.237 146.88 289.72 133.83 284.834 126.054C279.245 117.053 278.521 104.868 278.521 95.2488V32.3349C278.521 31.7267 278.531 31.1182 278.541 30.491C278.645 23.9325 278.75 17.7352 268.562 17.4121H265.32V12.1653H317.55L317.587 17.4501L316.657 17.4406C312.759 17.4025 309.793 18.4386 307.684 20.5201C305.184 23.0011 303.911 26.9742 303.911 32.3349V101.541C303.911 124.971 314.099 136.852 334.193 136.852C345.561 136.852 355.123 133.497 361.103 127.404C370.768 117.414 371.539 104.469 371.539 88.5761V32.1449C371.539 23.7995 370.711 17.4216 360.255 17.4216H357.537V12.1653H396.062V17.4216H394.435C386.719 17.4216 382.251 19.8263 382.251 32.1449V89.5362C382.259 128.127 365.531 146.88 331.122 146.88Z" fill="#E61E28"/>
<path d="M460.449 144.086H408.17V138.858L409.054 138.829C421.308 138.477 421.934 134.562 421.934 123.308V32.2589C421.934 20.5486 421.478 17.7733 409.568 17.4216L408.684 17.393V12.1653H462.017C493.526 12.1653 510.008 30.6335 510.008 48.8736C510.008 69.7468 491.397 86.0953 467.644 86.0953L455.877 85.9243V76.6853C455.877 76.6853 460.335 76.6378 461.959 76.6378C476.578 76.6378 484.097 65.5835 484.097 49.1303C484.097 31.9927 473.11 20.4726 456.761 20.4726L446.249 20.4441V125.427C446.249 136.453 448.244 138.449 459.574 138.82L460.459 138.848V144.086H460.449Z" fill="#E61E28"/>
<path d="M268.703 144.086H231.035L190.734 82.7972V75.3167L191.551 75.2312C205.685 73.7389 218.954 65.6025 218.954 47.2293C218.954 31.8122 207.862 21.0526 191.979 21.0526H181.105V125.427C181.105 136.795 186.323 137.926 193.699 138.268L194.564 138.306V144.076H143.456V138.772L144.321 138.725C155.404 138.107 156.972 135.331 156.972 125.418V30.814C156.563 19.104 155.841 17.6021 144.359 17.4216L143.465 17.4121V12.1653H198.519C219.515 12.1653 244.037 21.3946 244.037 47.4195C244.037 62.9316 234.637 74.0621 216.083 80.5159L236.995 111.388C239.275 114.886 247.659 125.056 251.414 129.201C258.571 136.9 263.722 137.964 267.134 138.668L268.703 139V144.086Z" fill="#E61E28"/>
<path d="M134.379 144.086H84.5057V138.934L85.3897 138.905C91.4825 138.696 95.2559 137.365 95.2559 131.415C95.2559 128.754 93.1743 123.545 92.0527 120.741L83.945 101.351H38.9007L30.6218 120.209C27.8748 126.435 27.0764 128.687 27.0764 131.605C27.0764 135.892 27.0764 138.725 37.1041 138.905L37.9977 138.924V144.095H2.03064V138.934L2.92412 138.915C10.0529 138.753 13.7598 135.132 18.7975 123.412L67.5868 12.1653H72.596L72.8335 12.7166L121.765 127.937C125.292 136.52 126.128 138.554 133.514 138.858L134.388 138.896V144.086H134.379ZM42.598 92.4256H80.295L61.8647 47.7142L42.598 92.4256Z" fill="#E61E28"/>
</svg>
